<svg id="Layer_1" data-name="Layer 1" xmlns="http://www.w3.org/2000/svg" viewBox="0 0 360 360"><path d="M145.43,300.73q-2.52,2.81-5.19,5.51c-16,16.18-38.63,30.75-62.44,24.91-21.31-5.23-34.19-25.88-37.8-46.37-.29-1.64-.52-3.28-.7-4.94-.36-3.32-.58-6.64-.7-10-.22-5.47-.2-10.95-.2-16.41V112.82H14.63V98.35H38.4V53.9L74.58,27V98.35H267.85v14.47H74.58V256.48s-1.25,90.74,62.48,31.4A89.41,89.41,0,0,0,145.43,300.73Z"/><path d="M226.11,173.37c-3,5.33-22.33,39.66-29.57,52.11-5.91,10.15-17.78,28.66-24.95,39.82-3.06,4.74-6.18,9.48-9.43,14.12a72.23,72.23,0,0,1-5.45-12.33,564,564,0,0,0,34.66-45.75c7.12-10.31,24.86-37.32,32-48.29C224.31,173.14,225.22,173.24,226.11,173.37Z"/><polygon points="267.85 53.91 304.03 27.03 304.03 332.97 267.85 308.16 267.85 53.91"/><path d="M209.8,153.13c-46.35,0-83.91,40.25-83.91,89.92a94.33,94.33,0,0,0,11.17,44.83,89.41,89.41,0,0,0,8.37,12.85C160.82,320.44,183.94,333,209.8,333c46.33,0,83.89-40.26,83.89-89.92S256.13,153.13,209.8,153.13Zm7.77,160.2c-23.49,0-44.06-13.58-55.41-33.91a72.23,72.23,0,0,1-5.45-12.33,75.65,75.65,0,0,1-3.88-24c0-38.82,29-70.28,64.74-70.28,2,0,3.92.09,5.84.28.9.09,1.81.19,2.7.32,31.73,4.53,56.21,34,56.21,69.68C282.32,281.87,253.33,313.33,217.57,313.33Z"/><circle cx="330.9" cy="318.5" r="14.47"/></svg>