<svg id="Layer_1" data-name="Layer 1" xmlns="http://www.w3.org/2000/svg" viewBox="0 0 502.36 540"><path d="M104.06,436.46c-40.67,0-59-36.28-59-83.33V206.8H15.15v-9.57c37.08,0,80.14-17.14,104.86-70.17v70.17h38.67v9.57H120V320.44c0,23.92-3.59,90.91,33.09,90.91C145.93,425.3,126.79,436.46,104.06,436.46Z"/><path d="M162.66,108.32v-4.78h114c91.7,0,152.71,67.38,152.71,165.46,0,99.28-63,162.68-152.71,162.68h-114V426.9h.4c13.56,0,23.13-8.78,23.13-22.73V131.45c0-14.36-9.57-23.13-23.13-23.13Zm98.49,4.78v309h5.58c56.22,0,87.72-65,87.72-153.9,0-92.91-34.69-155.11-87.72-155.11Z"/><path d="M455,371.64c19.3,0,32.27,13,32.27,32.27,0,19.59-13,32.55-32.27,32.55-19.59,0-32.56-13-32.56-32.55C422.39,384.61,435.36,371.64,455,371.64Z"/></svg>