<svg width="301" height="300" viewBox="0 0 301 300" fill="none" xmlns="http://www.w3.org/2000/svg">
<circle cx="150.697" cy="150" r="147.974" stroke="#EBE8DC" stroke-width="4.05243"/>
<path d="M259.041 150C259.041 191.034 246.799 228.103 227.106 254.865C207.413 281.628 180.372 297.974 150.69 297.974C121.008 297.974 93.9668 281.628 74.2733 254.865C54.5804 228.103 42.3387 191.034 42.3387 150C42.3387 108.966 54.5804 71.8969 74.2733 45.1349C93.9668 18.3719 121.008 2.02622 150.69 2.02622C180.372 2.02622 207.413 18.3719 227.106 45.1349C246.799 71.8969 259.041 108.966 259.041 150Z" stroke="#EBE8DC" stroke-width="4.05243"/>
<path d="M213.768 150C213.768 191.222 206.828 228.446 195.686 255.289C190.113 268.715 183.528 279.448 176.32 286.793C169.118 294.131 161.418 297.974 153.53 297.974C145.642 297.974 137.941 294.131 130.74 286.793C123.532 279.448 116.947 268.715 111.374 255.289C100.231 228.446 93.2918 191.222 93.2918 150C93.2918 108.778 100.231 71.5543 111.374 44.7108C116.947 31.2845 123.532 20.5519 130.74 13.207C137.941 5.86899 145.642 2.02622 153.53 2.02622C161.418 2.02622 169.118 5.86899 176.32 13.207C183.528 20.5519 190.113 31.2845 195.686 44.7108C206.828 71.5543 213.768 108.778 213.768 150Z" stroke="#EBE8DC" stroke-width="4.05243"/>
</svg>
